HIERARCHY
ROOT hip
{
	OFFSET 0.000000 0.000000 0.000000 
	CHANNELS 6 Xposition Yposition Zposition Xrotation Zrotation Yrotation
	JOINT abdomen
	{
		OFFSET 0.000000 3.402643 0.000000 
		CHANNELS 3 Xrotation Zrotation Yrotation
		JOINT chest
		{
			OFFSET 0.000000 8.438565 -0.680529 
			CHANNELS 3 Xrotation Zrotation Yrotation
			JOINT neck
			{
				OFFSET 0.000000 10.207942 -0.272212 
				CHANNELS 3 Xrotation Zrotation Yrotation
				JOINT head
				{
					OFFSET 0.000000 3.130431 0.000000 
					CHANNELS 3 Xrotation Zrotation Yrotation
					End Site
					{
						OFFSET 0.000000 3.130435 0.000000 
					}
				}
			}
			JOINT lCollar
			{
				OFFSET 3.470700 6.669187 -0.816635 
				CHANNELS 3 Yrotation Zrotation Xrotation
				JOINT lShldr
				{
					OFFSET 3.198488 0.000000 0.000000 
					CHANNELS 3 Zrotation Yrotation Xrotation
					JOINT lForeArm
					{
						OFFSET 10.139888 0.000000 0.000000 
						CHANNELS 3 Yrotation Zrotation Xrotation
						JOINT lHand
						{
							OFFSET 8.370511 0.000000 0.000000 
							CHANNELS 3 Zrotation Yrotation Xrotation
							End Site
							{
								OFFSET 4.083176 0.000000 0.000000 
							}
						}
					}
				}
			}
			JOINT rCollar
			{
				OFFSET -3.470700 6.669187 -0.816635 
				CHANNELS 3 Yrotation Zrotation Xrotation
				JOINT rShldr
				{
					OFFSET -3.198488 0.000000 0.000000 
					CHANNELS 3 Zrotation Yrotation Xrotation
					JOINT rForeArm
					{
						OFFSET -10.139888 0.000000 0.000000 
						CHANNELS 3 Yrotation Zrotation Xrotation
						JOINT rHand
						{
							OFFSET -8.370511 0.000000 0.000000 
							CHANNELS 3 Zrotation Yrotation Xrotation
							End Site
							{
								OFFSET -4.083176 0.000000 0.000000 
							}
						}
					}
				}
			}
		}
	}
	JOINT lThigh
	{
		OFFSET 5.308129 -1.633274 1.361059 
		CHANNELS 3 Xrotation Zrotation Yrotation
		JOINT lShin
		{
			OFFSET -2.041588 -20.007561 0.000000 
			CHANNELS 3 Xrotation Zrotation Yrotation
			JOINT lFoot
			{
				OFFSET 0.000000 -19.190928 -1.224953 
				CHANNELS 3 Xrotation Yrotation Zrotation
				End Site
				{
					OFFSET 0.000000 -2.449906 4.627600 
				}
			}
		}
	}
	JOINT rThigh
	{
		OFFSET -5.308129 -1.633274 1.361059 
		CHANNELS 3 Xrotation Zrotation Yrotation
		JOINT rShin
		{
			OFFSET 2.041588 -20.007561 0.000000 
			CHANNELS 3 Xrotation Zrotation Yrotation
			JOINT rFoot
			{
				OFFSET 0.000000 -19.190928 -1.224953 
				CHANNELS 3 Xrotation Yrotation Zrotation
				End Site
				{
					OFFSET 0.000000 -2.449906 4.627600 
				}
			}
		}
	}
}
MOTION
Frames: 13
Frame Time: 0.016667
-0.913050 51.490974 -80.317291 -25.796928 3.355464 -2.768076 20.755869 1.060235 -3.894969 1.731923 3.581507 -3.324083 -2.043257 7.101088 -0.392896 22.181168 2.391419 -16.958313 -22.107994 0.001142 -0.006844 -38.653114 -0.925998 -2.908877 -50.881069 5.000000 -15.970925 -23.358721 -3.428212 14.297106 19.038311 13.538821 -0.711584 35.225914 1.987944 0.170782 50.160511 -5.000000 -15.003603 11.773394 -27.102837 11.286569 -1.426135 15.121907 6.507251 64.873985 -1.935676 -4.518012 21.560764 -5.721646 -6.749713 35.569298 -7.216430 -9.981724 13.317979 6.497934 1.788830 -27.935005 -19.295078 -4.342087 
-0.908490 51.521317 -80.411629 -26.186113 3.198055 -3.227439 20.605694 1.284284 -3.861710 1.692460 3.669075 -3.461195 -2.112296 7.197641 -0.407501 22.295574 2.504160 -16.910769 -22.195871 0.235218 0.005220 -38.199825 -0.814189 -2.961598 -51.062431 5.000000 -16.106249 -23.110008 -3.534459 13.862325 19.090931 13.831376 -0.726715 34.835636 2.223725 0.452130 50.422287 -5.000000 -15.142099 11.269998 -27.163605 11.907866 -1.406554 15.566875 6.898990 65.170776 -1.974555 -4.708707 23.362204 -6.231670 -6.617804 35.738258 -7.383152 -9.856482 13.384759 6.518100 1.787635 -27.776505 -19.155102 -4.267775 
-0.900373 51.549812 -80.489311 -26.535086 3.069851 -3.677058 20.408432 1.473131 -3.852014 1.654836 3.766478 -3.549563 -2.152064 7.294196 -0.422105 22.387247 2.605717 -17.000292 -22.313089 0.440042 0.015779 -37.798401 -0.663152 -3.006949 -51.198345 5.000000 -16.235247 -22.951612 -3.690545 13.513366 19.096996 14.110987 -0.752653 34.564331 2.453968 0.729642 50.622734 -5.000000 -15.164956 10.778472 -27.194506 12.547656 -1.152737 15.869696 7.428742 65.463531 -1.935444 -4.726182 24.596790 -6.495243 -6.605018 35.870399 -7.577920 -9.723455 13.432194 6.509207 1.801181 -27.632120 -19.044331 -4.227567 
-0.888735 51.576099 -80.549843 -26.835024 2.980621 -4.106668 20.164442 1.615489 -3.859629 1.619216 3.873732 -3.589205 -2.161235 7.382555 -0.425671 22.463295 2.705464 -17.206928 -22.459629 0.615612 0.024833 -37.457897 -0.479586 -3.052232 -51.289120 5.000000 -16.358706 -22.883326 -3.894903 13.259425 19.052048 14.393794 -0.767281 34.392246 2.669157 0.998367 50.782150 -5.000000 -15.062456 10.334514 -27.209705 13.167287 -0.654908 16.042274 8.079363 65.744354 -1.828185 -4.517218 25.248331 -6.497480 -6.718764 36.004799 -7.803261 -9.582198 13.492257 6.518209 1.836843 -27.498680 -18.910301 -4.138892 
-0.871184 51.599216 -80.590485 -27.123371 2.891357 -4.527046 19.920715 1.757609 -3.867460 1.583080 3.990738 -3.628187 -2.181428 7.469455 -0.438814 22.538136 2.804798 -17.423840 -22.596432 0.791181 0.033885 -37.145664 -0.310727 -3.097081 -51.381577 5.000000 -16.478788 -22.827934 -4.110448 13.021934 19.007044 14.666849 -0.783860 34.240788 2.861451 1.250617 50.916950 -5.000000 -14.949918 9.896667 -27.223307 13.795996 -0.108791 16.164371 8.732170 65.998032 -1.710946 -4.241457 25.984781 -6.432413 -6.817252 36.113941 -8.007127 -9.454108 13.563482 6.479113 1.888081 -27.423420 -18.872721 -4.121649 
-0.847594 51.619732 -80.612167 -27.361227 2.831475 -4.888415 19.631721 1.841878 -3.834030 1.564250 4.107650 -3.755667 -2.251206 7.487306 -0.451308 22.625303 2.912051 -17.709091 -22.694157 0.908227 0.039921 -36.921711 -0.140324 -3.132145 -51.511707 5.000000 -16.487457 -22.850700 -4.379385 12.931722 18.991280 14.930148 -0.797486 34.198242 2.968777 1.473517 50.957779 -5.000000 -14.728070 9.576535 -27.241655 14.385934 0.770718 16.092060 9.446885 66.104698 -1.496400 -3.671877 26.626364 -6.193173 -7.119541 36.223927 -8.232289 -9.243426 13.629870 6.500517 1.877322 -27.408651 -18.829258 -4.121193 
-0.818409 51.637127 -80.617035 -27.588987 2.781312 -5.240512 19.343197 1.929507 -3.779162 1.554944 4.224547 -3.892924 -2.340523 7.505158 -0.463802 22.704819 3.037285 -18.004660 -22.782116 1.005767 0.044951 -36.716766 0.021488 -3.160036 -51.657028 5.000000 -16.482357 -22.888168 -4.652606 12.877299 18.994972 15.183692 -0.813149 34.174488 3.057220 1.673224 50.984745 -5.000000 -14.491958 9.277959 -27.261688 14.962811 1.698547 15.984929 10.161829 66.194321 -1.261832 -3.020284 27.259506 -5.994745 -7.466954 36.348812 -8.436600 -9.045371 13.685652 6.496374 1.892272 -27.418499 -18.816862 -4.160571 
-0.782904 51.649345 -80.608315 -27.746397 2.770480 -5.484838 19.026569 1.990007 -3.734076 1.523782 4.321784 -4.030085 -2.460502 7.531207 -0.487327 22.718121 3.142576 -18.348534 -22.879858 1.113062 0.050483 -36.617653 0.156091 -3.183248 -51.842022 5.000000 -16.385700 -22.933472 -4.920848 12.884944 18.949471 15.407989 -0.824768 34.255829 3.045639 1.812100 50.925182 -5.000000 -14.166018 9.041017 -27.264862 15.526318 2.762515 15.721465 10.791821 66.010887 -1.017584 -2.334337 27.500618 -5.703985 -7.651872 36.439568 -8.622263 -8.899888 13.738787 6.498441 1.897075 -27.512493 -18.812784 -4.247911 
-0.741629 51.656994 -80.586800 -27.824242 2.798993 -5.621866 18.682085 2.023033 -3.667853 1.471597 4.379835 -4.187415 -2.630790 7.575107 -0.524626 22.640570 3.246751 -18.722240 -22.977604 1.210603 0.055514 -36.635536 0.280279 -3.179241 -52.065125 5.000000 -16.209158 -23.010559 -5.160518 13.001202 18.874134 15.593281 -0.834359 34.448833 2.957820 1.872298 50.788040 -5.000000 -13.735415 8.875930 -27.271900 16.048622 3.963015 15.309372 11.341980 65.563782 -0.773318 -1.632894 27.305981 -5.359861 -7.680740 36.499462 -8.769157 -8.768880 13.767328 6.461814 1.866960 -27.695557 -18.816860 -4.358863 
-0.696313 51.661564 -80.554703 -27.912477 2.827429 -5.768651 18.328396 2.056529 -3.601895 1.428408 4.447600 -4.344004 -2.799745 7.610806 -0.549609 22.574581 3.341072 -19.096006 -23.075558 1.304317 0.069526 -36.643082 0.399185 -3.183051 -52.303345 5.000000 -16.023527 -23.086502 -5.407648 13.099977 18.796371 15.791471 -0.835550 34.642292 2.856056 1.934355 50.638760 -5.000000 -13.302505 8.714339 -27.269302 16.569618 5.152880 14.877081 11.881015 65.105675 -0.509531 -0.950128 27.130030 -4.976438 -7.711973 36.565742 -8.935301 -8.666594 13.809610 6.439562 1.879163 -27.899866 -18.797974 -4.477837 
-0.646681 51.663597 -80.510361 -27.932009 2.827429 -5.768651 18.042585 2.145080 -3.484890 1.389756 4.496018 -4.481210 -3.048745 7.575997 -0.584804 22.322618 3.445452 -19.401608 -23.163336 1.395932 0.065071 -36.873913 0.490038 -3.177047 -52.645134 5.000000 -15.722796 -23.213955 -5.571448 13.352242 18.722065 15.866348 -0.851149 34.958122 2.524814 1.879605 50.310940 -5.000000 -12.854580 8.615822 -27.305418 17.066742 6.558766 14.428493 12.134982 64.195503 -0.431354 -0.675526 24.429195 -4.741278 -7.087460 36.617077 -8.964787 -8.618541 13.822996 6.363125 1.862473 -28.114208 -18.774292 -4.563844 
-0.594256 51.662922 -80.458008 -27.950077 2.817760 -5.758897 17.747511 2.234033 -3.368059 1.340669 4.554169 -4.608652 -3.307364 7.531530 -0.617251 22.066345 3.530934 -19.706678 -23.241573 1.493470 0.070099 -37.095760 0.595146 -3.169929 -52.983852 5.000000 -15.434667 -23.340670 -5.725510 13.601327 18.645147 15.944375 -0.855195 35.272987 2.207856 1.819098 49.969284 -5.000000 -12.398437 8.498607 -27.349287 17.578646 7.934124 13.969037 12.384923 63.273834 -0.314036 -0.427850 21.777294 -4.570167 -6.496239 36.672272 -8.983357 -8.596995 13.843888 6.292417 1.857037 -28.341669 -18.758303 -4.683625 
-0.540972 51.659054 -80.403076 -27.915966 2.808428 -5.680389 17.510569 2.358351 -3.228742 1.313069 4.573295 -4.745866 -3.596271 7.466286 -0.657630 21.765720 3.562677 -19.932613 -23.290497 1.571499 0.074121 -37.395489 0.696009 -3.164619 -53.374565 5.000000 -15.062502 -23.412865 -5.814778 13.928432 18.593826 15.957247 -0.846804 35.668953 1.763368 1.631863 49.552128 -5.000000 -11.917841 8.464396 -27.411612 18.037601 9.246364 13.524760 12.433001 62.248692 -0.313700 -0.390296 18.150072 -4.385401 -5.631635 36.696201 -8.964919 -8.579135 13.845955 6.216852 1.820059 -28.479017 -18.729874 -4.680589 
